# xmcd CD database file
#
# Track frame offsets:
#	150
#	26337
#	45835
#	70055
#	103237
#	121557
#	138400
#	163650
#	197332
#	220040
#	241180
#	263002
#	301002
#	327950
#
# Disc length: 4688 seconds
#
# Revision: 0
# Processed by: cddbd v1.5.2PL0 Copyright (c) Steve Scherf et al.
# Submitted via: CDex 1.60beta1-cs1
#
DISCID=aa124e0e
DTITLE=Hideo Shiraki - Funky !!
DYEAR=1900
DGENRE=Jazz
TTITLE0=It's Allright With Me
TTITLE1=The Diary
TTITLE2=An Affair To Remember
TTITLE3=Latin Fantasy
TTITLE4=Blues Suite Part 1
TTITLE5=Blues Suite Part 2
TTITLE6=Blues Suite Part 3
TTITLE7=Blues Suite Part 4
TTITLE8=Sayonara Blues
TTITLE9=Ah So
TTITLE10=Tune Up
TTITLE11=Round About Midnight
TTITLE12=Work Song
TTITLE13=Blue Moon - Round About Midnight
EXTD=
EXTT0=
EXTT1=
EXTT2=
EXTT3=
EXTT4=
EXTT5=
EXTT6=
EXTT7=
EXTT8=
EXTT9=
EXTT10=
EXTT11=
EXTT12=
EXTT13=
PLAYORDER=
